<svg width="35" height="38" viewBox="0 0 35 38" fill="none" xmlns="http://www.w3.org/2000/svg">
<path d="M34.0806 24.4854C33.4801 23.4117 32.5446 22.5687 31.4199 22.0878C30.2951 21.6069 29.0444 21.5151 27.8626 21.8267C28.0277 20.7564 28.0307 19.667 27.8713 18.5958C27.5965 16.7421 26.8416 14.9945 25.6829 13.5299C24.5243 12.0653 23.003 10.9356 21.273 10.2551C21.0954 10.4316 20.9066 10.5962 20.7079 10.7481C19.7583 11.4675 18.6044 11.8589 17.4172 11.8643C16.2299 11.8697 15.0726 11.4888 14.1166 10.7781C13.9146 10.6283 13.7234 10.4641 13.5445 10.2868C13.012 9.778 12.5852 9.16723 12.2891 8.49014C11.9929 7.81305 11.8332 7.0832 11.8195 6.34316C11.8057 5.60313 11.938 4.86773 12.2088 4.17988C12.4795 3.49203 12.8832 2.86549 13.3964 2.33682C13.9095 1.80815 14.5219 1.38794 15.1976 1.1007C15.8733 0.813465 16.599 0.664951 17.3322 0.663825C18.0654 0.662699 18.7915 0.808985 19.4681 1.09415C20.1447 1.37931 20.7583 1.79764 21.273 2.32473C21.6266 2.67754 21.9317 3.07669 22.18 3.51147C26.4745 4.76109 30.1185 7.64936 32.3399 11.5644C34.5613 15.4795 35.1856 20.1137 34.0806 24.4854Z" fill="#F2A30F"/>
<path d="M17.4515 25.748C20.5013 25.748 22.9736 23.2522 22.9736 20.1735C22.9736 17.0948 20.5013 14.599 17.4515 14.599C14.4017 14.599 11.9294 17.0948 11.9294 20.1735C11.9294 23.2522 14.4017 25.748 17.4515 25.748Z" fill="#0E0D40"/>
<path d="M11.0904 27.2271C11.0904 27.4155 11.08 27.6004 11.0625 27.7853C11.0381 28.0404 10.9955 28.2934 10.9352 28.5424C10.6477 29.7372 9.97699 30.8025 9.02746 31.5725C8.07793 32.3425 6.90286 32.774 5.68517 32.7999H5.56831C4.59601 32.7995 3.64103 32.5401 2.79986 32.0478C1.95868 31.5556 1.26112 30.8479 0.777661 29.9963C0.2942 29.1447 0.0419655 28.1794 0.0464454 27.1979C0.0509252 26.2164 0.31196 25.2535 0.803175 24.4064C-0.284757 20.0689 0.333924 15.4745 2.52938 11.5876C4.72484 7.7006 8.32639 4.8232 12.5782 3.5592C11.9812 4.63105 11.7522 5.87218 11.927 7.08914C12.1018 8.30609 12.6705 9.43047 13.5445 10.287C11.3198 11.1793 9.46291 12.8107 8.28043 14.9119C7.09796 17.0131 6.66055 19.4585 7.04041 21.8445C7.28681 21.9136 7.52811 22.0001 7.7625 22.1034C8.75242 22.5358 9.59515 23.2515 10.1866 24.1621C10.778 25.0727 11.0922 26.1383 11.0904 27.2271V27.2271Z" fill="#F20574"/>
<path d="M34.7905 27.227C34.791 27.9592 34.6484 28.6843 34.3711 29.3609C34.0937 30.0374 33.687 30.6521 33.1741 31.1698C32.6613 31.6876 32.0523 32.0982 31.3822 32.3782C30.712 32.6581 29.9937 32.802 29.2684 32.8015H29.2056C26.2712 35.5786 22.4653 37.2292 18.4499 37.4663C14.4345 37.7034 10.4639 36.512 7.22878 34.0992C6.6905 33.6971 6.17623 33.2632 5.68866 32.7998C6.90669 32.7728 8.08167 32.3399 9.03062 31.5686C9.97956 30.7972 10.6492 29.7308 10.9352 28.5353C11.0119 28.5969 11.0904 28.6568 11.1689 28.7113C13.0178 30.0889 15.2614 30.8202 17.5592 30.7941C19.857 30.7681 22.0837 29.9861 23.9015 28.567C23.8417 28.3248 23.798 28.079 23.7707 27.831C23.7481 27.6263 23.7371 27.4206 23.7376 27.2147C23.7374 26.1104 24.0621 25.0309 24.6704 24.1131C25.2787 23.1953 26.1432 22.4805 27.1544 22.0593C27.3813 21.9638 27.6144 21.8844 27.8521 21.8216C29.036 21.5078 30.2895 21.5991 31.4165 22.0811C32.5435 22.5631 33.4804 23.4087 34.0806 24.4856C34.5458 25.3204 34.7902 26.2621 34.7905 27.22V27.227Z" fill="#514BF2"/>
</svg>
